<svg width="27" height="14" viewBox="0 0 27 14" fill="none" xmlns="http://www.w3.org/2000/svg">
<path d="M0.92 14V11.68H2.76V2.32H0.92V-9.53674e-07H8.12C8.97333 -9.53674e-07 9.71333 0.146666 10.34 0.439999C10.98 0.72 11.4733 1.12667 11.82 1.66C12.18 2.18 12.36 2.80667 12.36 3.54V3.74C12.36 4.38 12.24 4.90667 12 5.32C11.76 5.72 11.4733 6.03333 11.14 6.26C10.82 6.47333 10.5133 6.62667 10.22 6.72V7.08C10.5133 7.16 10.8333 7.31333 11.18 7.54C11.5267 7.75333 11.82 8.06667 12.06 8.48C12.3133 8.89333 12.44 9.43333 12.44 10.1V10.3C12.44 11.0733 12.26 11.74 11.9 12.3C11.54 12.8467 11.04 13.2667 10.4 13.56C9.77333 13.8533 9.04 14 8.2 14H0.92ZM5.4 11.6H7.88C8.45333 11.6 8.91333 11.46 9.26 11.18C9.62 10.9 9.8 10.5 9.8 9.98V9.78C9.8 9.26 9.62667 8.86 9.28 8.58C8.93333 8.3 8.46667 8.16 7.88 8.16H5.4V11.6ZM5.4 5.76H7.84C8.38667 5.76 8.83333 5.62 9.18 5.34C9.54 5.06 9.72 4.67333 9.72 4.18V3.98C9.72 3.47333 9.54667 3.08667 9.2 2.82C8.85333 2.54 8.4 2.4 7.84 2.4H5.4V5.76ZM14.6012 14V-9.53674e-07H17.2413V5.78H22.4413V-9.53674e-07H25.0813V14H22.4413V8.18H17.2413V14H14.6012Z" fill="black"/>
<path d="M0 8.18H26.4013V9.18H0V8.18Z" fill="black"/>
</svg>
